<svg width="1024" height="1024" viewBox="0 0 1024 1024" fill="none" xmlns="http://www.w3.org/2000/svg">
<path d="M601.828 92.2633C642.868 89.9773 845.562 87.612 874.989 94.9782C894.307 99.8179 911.774 113.395 921.914 130.656C928.09 141.174 930.689 153.541 931.977 165.581C934.948 193.357 935.239 366.455 928.766 391.283C924.476 407.741 914.863 426.731 901.939 437.957C873.551 462.615 831.12 475.661 798.564 494.527C754.364 520.139 712.07 549.611 668.251 576.054C642.949 552.775 605.217 508.729 582.367 482.227C620.341 441.88 678.155 377.572 717.843 341.874C746.4 360.804 767.421 363.184 799.999 361.352C879.02 347.599 918.867 261.062 879.483 189.866C865.653 164.314 842.207 145.505 814.471 137.715C784.667 129.461 755.439 133.312 728.852 149.269C701.88 165.539 682.507 192.11 675.098 222.996C667.129 257.129 674.841 284.883 692.147 313.914C648.552 357.517 601.879 411.374 557.589 452.608C551.307 447.612 545.836 441.627 540.159 435.957C509.77 405.599 475.539 379.496 444.053 350.371C453.066 294.283 509.244 187.332 537.604 133.265C548.976 111.588 577.199 96.9246 601.828 92.2633Z" fill="#CBDFF7"/>
<path d="M154.747 92.344C189.608 90.8762 389.327 87.9034 413.211 95.9812C427.31 100.752 438.419 110.429 444.919 124.008C468.673 173.635 428.366 277.223 411.68 327.822C378.149 312.185 336.737 299.597 300.933 284.352C304.812 197.856 215.845 195.005 196.994 249.658C191.597 264.995 192.571 281.89 199.698 296.486C216.355 330.178 249.406 331.098 279.339 315.272C294.773 322.527 307.354 327.24 323.288 333.113C334.785 337.606 401.942 357.478 397.85 370.626C389.055 398.884 336.8 573.61 324.388 583.272C307.232 584.095 186.348 521.409 162.758 510.116C144.25 501.257 103.614 471.239 99.0588 446.451C83.2325 355.45 93.465 256.149 92.3702 163.539C91.9024 124.04 120.374 101.924 154.747 92.344Z" fill="#0D3477"/>
<path d="M121.099 543.231C152.632 542.222 280.981 607.935 314.774 626.127C303.557 658.076 291.875 689.854 279.732 721.454C169.585 729.757 228.653 875.755 305.379 823.467C317.105 815.615 325.068 803.166 327.345 789.121C330.901 767.89 324.355 753.279 312.692 736.605C323.49 707.311 334.609 675.211 346.892 646.733C394.696 675.548 427.448 701.053 483.999 705.033C495.051 705.367 510.006 704.175 521.343 703.609C524.419 749.837 524.235 813.83 512.923 858.972C502.303 901.344 475.583 933.023 429.839 932.471C336.529 931.34 238.988 938.808 146.556 928.315C131.905 924.204 105.104 902.12 101.448 887.653C78.1663 795.557 99.0255 689.901 90.696 594.401C88.5971 570.328 100.267 552.561 121.099 543.231Z" fill="#CBDFF7"/>
<path d="M835.761 523.781C837.187 523.639 838.619 523.533 840.052 523.461C899.208 520.111 933.964 577.221 933.217 631.403C932.186 701.239 933.609 770.126 933.139 840.022C932.987 895.595 892.872 934.261 837.383 933.073C766.238 931.548 688.236 937.206 617.157 929.82C596.834 927.708 569.289 895.984 566.727 875.291C559.287 815.231 563.387 750.864 562.926 689.626L664.129 625.383C692.363 656.507 720.131 690.759 747.154 723.192C721.63 761.716 734.429 809.172 783.33 812.898C799.678 813.989 815.769 808.356 827.958 797.271C850.243 776.61 844.845 743.215 826.633 720.797C816.124 707.859 796.477 705.025 780.658 704.363C753.236 674.623 722.293 636.081 695.703 604.72C728.463 582.616 801.812 532.444 835.761 523.781Z" fill="#0D3477"/>
<path d="M430.475 392.072C471.304 406.375 598.409 557.828 635.873 597.919C618.502 611.95 571.718 640.121 551.8 652.054C499.572 680.438 452.534 669.754 404.933 638.145C391.627 629.311 372.619 620.546 362.681 607.896C362.01 587.942 419.525 424.182 430.475 392.072Z" fill="#8BB3E6"/>
<path d="M767.568 170.089C810.033 161.108 851.663 188.637 860.605 231.614C869.545 274.589 842.421 316.778 799.982 325.9C757.446 335.041 715.656 307.503 706.695 264.429C697.734 221.352 725.005 179.091 767.568 170.089Z" fill="#E10B26"/>
</svg>
